<svg width="631" height="180" viewBox="0 0 631 180" fill="none" xmlns="http://www.w3.org/2000/svg">
<path d="M211.921 69.5208L219.471 57.9008C221.191 59.6208 223.321 61.0908 225.851 62.3008C228.381 63.5108 231.171 64.1108 234.221 64.1108C236.311 64.1108 237.941 63.7608 239.141 63.0708C240.331 62.3708 240.931 61.4808 240.931 60.3908C240.931 59.5308 240.451 58.7808 239.491 58.1608C238.531 57.5308 237.291 56.9808 235.771 56.5008C234.251 56.0208 232.571 55.5208 230.731 54.9908C228.891 54.4608 227.051 53.7708 225.221 52.9308C223.381 52.0908 221.701 51.0808 220.181 49.9008C218.661 48.7308 217.421 47.1508 216.461 45.1808C215.501 43.2108 215.021 40.9508 215.021 38.4008C215.021 33.5708 216.771 29.7708 220.261 27.0008C223.751 24.2408 228.411 22.8508 234.241 22.8508C238.381 22.8508 242.191 23.4908 245.661 24.7608C249.141 26.0408 251.741 27.6308 253.461 29.5508L247.051 40.2308C246.091 39.1008 244.481 38.0608 242.231 37.1008C239.981 36.1408 237.681 35.6608 235.331 35.6608C233.841 35.6608 232.641 35.9108 231.731 36.4008C230.821 36.9008 230.361 37.5308 230.361 38.2908C230.361 39.1808 230.861 39.9508 231.851 40.6008C232.841 41.2508 234.131 41.8108 235.701 42.2908C237.271 42.7708 239.011 43.2708 240.911 43.7808C242.811 44.2908 244.721 44.9608 246.621 45.7908C248.521 46.6208 250.261 47.6008 251.831 48.7508C253.401 49.8908 254.691 51.4308 255.681 53.3708C256.671 55.3108 257.171 57.5308 257.171 60.0508C257.171 65.3508 255.061 69.6608 250.841 72.9908C246.621 76.3208 241.281 77.9808 234.821 77.9808C230.551 77.9808 226.391 77.2408 222.351 75.7508C218.311 74.2608 214.831 72.1908 211.921 69.5408V69.5208Z" fill="#04007C"/>
<path d="M301.211 24.3809H317.451V76.1309H301.211V70.3209C297.141 75.4209 291.711 77.9709 284.921 77.9709C278.131 77.9709 272.841 75.8509 269.331 71.6109C265.821 67.3709 264.071 61.0509 264.071 52.6409V24.3809H280.361V51.6909C280.361 59.0409 283.411 62.7109 289.501 62.7109C292.981 62.7109 295.801 61.5109 297.971 59.1109C300.141 56.7109 301.221 53.7109 301.221 50.1009V24.3809H301.211Z" fill="#04007C"/>
<path d="M326.681 9.09083C326.681 6.61083 327.531 4.61083 329.241 3.11083C330.941 1.60083 333.211 0.85083 336.021 0.85083C338.831 0.85083 341.201 1.60083 342.921 3.11083C344.641 4.62083 345.501 6.61083 345.501 9.09083C345.501 11.5708 344.651 13.6108 342.941 15.1008C341.231 16.5908 338.921 17.3408 336.011 17.3408C333.101 17.3408 330.941 16.6008 329.231 15.1008C327.521 13.6108 326.671 11.6108 326.671 9.09083H326.681ZM344.261 76.1308H327.971V24.3808H344.261V76.1308Z" fill="#04007C"/>
<path d="M357.97 11.0209H374.26V24.3809H386.03V37.8909H374.26V56.4109C374.26 60.3209 375.82 62.2709 378.93 62.2709C380.06 62.2709 381.28 62.0809 382.61 61.7009C383.93 61.3209 384.81 60.9509 385.24 60.5809L390.85 73.6909C386.38 75.9709 381.5 77.1209 376.2 77.1209C369.91 77.1209 365.3 75.3709 362.37 71.8809C359.44 68.3909 357.97 62.8809 357.97 55.3709V37.8909H350.47V24.3809H357.97V11.0209Z" fill="#04007C"/>
<path d="M448.65 55.0708H411.5C412.43 57.6208 414.05 59.6308 416.37 61.1008C418.69 62.5708 421.45 63.3108 424.66 63.3108C429.23 63.3108 433.05 61.6508 436.13 58.3408L446.81 67.7808C444.39 71.1208 441.07 73.6908 436.83 75.4808C432.59 77.2708 427.99 78.1608 423.02 78.1608C414.44 78.1608 407.5 75.5408 402.19 70.3108C396.88 65.0808 394.22 58.3408 394.22 50.1008C394.22 41.8608 396.84 35.2108 402.07 30.0608C407.3 24.9108 414.09 22.3408 422.43 22.3408C426.7 22.3408 430.56 23.0708 434 24.5308C437.44 25.9908 440.26 27.9508 442.44 30.4108C444.63 32.8808 446.31 35.6908 447.48 38.8508C448.66 42.0108 449.24 45.3508 449.24 48.8608C449.24 50.9508 449.04 53.0208 448.64 55.0708H448.65ZM411.6 44.0008H433.7C432.91 41.7808 431.56 40.0208 429.65 38.7108C427.75 37.4008 425.44 36.7508 422.72 36.7508C420 36.7508 417.74 37.4008 415.82 38.7108C413.9 40.0208 412.49 41.7808 411.6 44.0008Z" fill="#04007C"/>
<path d="M266.641 136.211H229.491C230.421 138.761 232.041 140.771 234.361 142.241C236.681 143.711 239.441 144.451 242.651 144.451C247.221 144.451 251.041 142.791 254.121 139.481L264.801 148.921C262.381 152.261 259.061 154.831 254.821 156.621C250.581 158.411 245.981 159.301 241.011 159.301C232.431 159.301 225.491 156.681 220.181 151.451C214.871 146.221 212.211 139.481 212.211 131.241C212.211 123.001 214.831 116.351 220.061 111.201C225.291 106.051 232.081 103.481 240.421 103.481C244.691 103.481 248.551 104.211 251.991 105.671C255.431 107.131 258.251 109.091 260.431 111.551C262.621 114.021 264.301 116.831 265.471 119.991C266.651 123.151 267.231 126.491 267.231 130.001C267.231 132.091 267.031 134.161 266.631 136.211H266.641ZM229.591 125.131H251.691C250.901 122.911 249.551 121.151 247.641 119.841C245.741 118.531 243.431 117.881 240.711 117.881C237.991 117.881 235.731 118.531 233.811 119.841C231.891 121.151 230.481 122.911 229.591 125.131Z" fill="#04007C"/>
<path d="M258.44 87.0708H221.01V97.8708H258.44V87.0708Z" fill="#04007C"/>
<path d="M325.56 111.771C330.41 116.971 332.831 123.561 332.831 131.531C332.831 139.501 330.4 146.101 325.56 151.291C320.71 156.491 314.591 159.091 307.211 159.091C300.561 159.091 295.36 156.951 291.62 152.681V175.031H275.38V105.501H291.62V110.571C295.3 106.171 300.491 103.971 307.211 103.971C314.591 103.971 320.71 106.571 325.56 111.771ZM316.551 131.841C316.551 128.161 315.371 125.081 313.021 122.581C310.671 120.081 307.71 118.831 304.13 118.831C300.55 118.831 297.531 120.081 295.171 122.581C292.801 125.081 291.62 128.171 291.62 131.841C291.62 135.511 292.801 138.491 295.151 140.881C297.501 143.261 300.501 144.461 304.141 144.461C307.781 144.461 310.721 143.271 313.051 140.881C315.381 138.501 316.551 135.481 316.551 131.841Z" fill="#04007C"/>
<path d="M345.331 151.301C340.481 146.101 338.051 139.511 338.051 131.541C338.051 123.571 340.471 116.971 345.331 111.781C350.181 106.581 356.301 103.981 363.681 103.981C370.501 103.981 375.701 106.181 379.271 110.581V105.511H395.511V157.261H379.271V152.691C375.631 156.961 370.431 159.101 363.681 159.101C356.301 159.101 350.181 156.501 345.331 151.301ZM354.341 131.841C354.341 135.481 355.521 138.491 357.871 140.881C360.221 143.261 363.221 144.461 366.861 144.461C370.501 144.461 373.441 143.271 375.771 140.881C378.101 138.501 379.271 135.481 379.271 131.841C379.271 128.201 378.091 125.081 375.741 122.581C373.391 120.081 370.431 118.831 366.851 118.831C363.271 118.831 360.251 120.081 357.891 122.581C355.521 125.081 354.341 128.171 354.341 131.841Z" fill="#04007C"/>
<path d="M422.531 157.261H406.291V105.511H422.531V111.371C426.441 106.441 431.671 103.971 438.221 103.971C442.921 103.971 446.741 105.011 449.691 107.101L442.391 121.951C441.561 121.191 440.391 120.541 438.861 120.011C437.341 119.481 435.661 119.221 433.841 119.221C430.331 119.221 427.571 120.401 425.551 122.771C423.531 125.141 422.521 128.161 422.521 131.831V157.261H422.531Z" fill="#04007C"/>
<path d="M458.361 147.231C453.311 142.501 450.791 136.551 450.791 129.401C450.791 122.251 453.311 116.371 458.341 111.771C463.371 107.171 469.781 104.871 477.561 104.871H506.561V117.781L501.051 117.481C503.071 120.821 504.081 124.801 504.081 129.401C504.081 135.891 501.981 141.451 497.771 146.091C503.631 149.301 506.561 153.901 506.561 159.901C506.561 165.901 504.111 170.831 499.211 174.331C494.311 177.821 487.671 179.571 479.301 179.571C473.871 179.571 468.931 178.721 464.481 177.011C460.031 175.301 456.661 173.061 454.371 170.281L462.911 158.711C464.001 160.171 465.991 161.581 468.871 162.961C471.751 164.331 474.911 165.021 478.361 165.021C481.811 165.021 484.391 164.501 486.501 163.461C488.621 162.421 489.681 161.001 489.681 159.211C489.681 157.421 488.691 156.161 486.701 155.441C484.711 154.711 481.671 154.351 477.561 154.351C469.811 154.351 463.411 151.981 458.371 147.251L458.361 147.231ZM467.071 129.301C467.071 132.211 468.091 134.671 470.121 136.671C472.161 138.671 474.631 139.671 477.541 139.671C480.451 139.671 482.891 138.671 484.861 136.671C486.831 134.671 487.821 132.211 487.821 129.301C487.821 126.391 486.831 123.831 484.861 121.831C482.891 119.831 480.451 118.831 477.541 118.831C474.631 118.831 472.151 119.841 470.121 121.861C468.081 123.881 467.071 126.361 467.071 129.311V129.301Z" fill="#04007C"/>
<path d="M531.191 157.261H514.951V105.511H531.191V111.471C535.161 106.471 540.591 103.971 547.481 103.971C554.371 103.971 559.561 106.091 563.071 110.331C566.581 114.571 568.331 120.891 568.331 129.301V157.261H552.041V130.191C552.041 122.871 548.991 119.221 542.901 119.221C539.361 119.221 536.521 120.411 534.381 122.801C532.241 125.181 531.181 128.201 531.181 131.841V157.271L531.191 157.261Z" fill="#04007C"/>
<path d="M630.011 136.211H592.861C593.791 138.761 595.411 140.771 597.731 142.241C600.051 143.711 602.811 144.451 606.021 144.451C610.591 144.451 614.411 142.791 617.491 139.481L628.171 148.921C625.751 152.261 622.431 154.831 618.191 156.621C613.951 158.411 609.351 159.301 604.381 159.301C595.801 159.301 588.861 156.681 583.551 151.451C578.241 146.221 575.581 139.481 575.581 131.241C575.581 123.001 578.201 116.351 583.431 111.201C588.661 106.051 595.451 103.481 603.791 103.481C608.061 103.481 611.921 104.211 615.361 105.671C618.801 107.131 621.621 109.091 623.801 111.551C625.991 114.021 627.671 116.831 628.841 119.991C630.021 123.151 630.601 126.491 630.601 130.001C630.601 132.091 630.401 134.161 630.001 136.211H630.011ZM592.961 125.131H615.061C614.271 122.911 612.921 121.151 611.011 119.841C609.111 118.531 606.801 117.881 604.081 117.881C601.361 117.881 599.101 118.531 597.181 119.841C595.261 121.151 593.851 122.911 592.961 125.131Z" fill="#04007C"/>
<path d="M98.3005 167.801L98.2705 167.831C98.2705 167.831 98.3105 167.901 98.3405 167.921C98.3405 167.881 98.3205 167.831 98.3005 167.801Z" fill="url(#paint0_linear_451_687)"/>
<path d="M156.131 68.5008L94.4506 42.3208L126.741 29.2008L166.121 45.9108C172.211 48.4908 175.051 55.5208 172.461 61.6108L172.321 61.9508C169.661 68.2208 162.411 71.1508 156.131 68.4908V68.5008Z" fill="url(#paint1_linear_451_687)"/>
<path d="M149.57 123.091L124.391 61.0007L156.51 74.5207L172.581 114.161C175.061 120.291 172.111 127.271 165.98 129.761L165.641 129.901C159.331 132.461 152.121 129.411 149.561 123.101L149.57 123.091Z" fill="url(#paint2_linear_451_687)"/>
<path d="M105.54 156.441L131.64 94.7308L144.8 127.001L128.14 166.401C125.56 172.491 118.54 175.341 112.45 172.761L112.11 172.621C105.84 169.971 102.9 162.721 105.55 156.441H105.54Z" fill="url(#paint3_linear_451_687)"/>
<path d="M51.2205 149.421L113.311 124.241L99.7906 156.361L60.1505 172.431C54.0205 174.911 47.0406 171.961 44.5506 165.831L44.4106 165.491C41.8506 159.181 44.9006 151.971 51.2106 149.411L51.2205 149.421Z" fill="url(#paint4_linear_451_687)"/>
<path d="M17.7705 105.851L79.2505 132.481L46.8705 145.361L7.62052 128.361C1.55052 125.731 -1.23948 118.681 1.39052 112.611L1.54052 112.271C4.25052 106.021 11.5205 103.141 17.7705 105.851Z" fill="url(#paint5_linear_451_687)"/>
<path d="M25.0605 51.5708L50.2405 113.661L18.1205 100.141L2.04051 60.5108C-0.439489 54.3808 2.51051 47.4008 8.64051 44.9108L8.98051 44.7708C15.2905 42.2108 22.5005 45.2608 25.0605 51.5708Z" fill="url(#paint6_linear_451_687)"/>
<path d="M68.7405 17.7008L42.6405 79.4108L29.4805 47.1408L46.1505 7.74078C48.7305 1.65078 55.7505 -1.19922 61.8405 1.38078L62.1805 1.52078C68.4505 4.17078 71.3905 11.4208 68.7405 17.7008Z" fill="url(#paint7_linear_451_687)"/>
<path d="M122.861 25.1308L60.7705 50.3108L74.2905 18.1908L113.931 2.11082C120.061 -0.369177 127.041 2.58082 129.531 8.71082L129.671 9.05082C132.231 15.3608 129.181 22.5708 122.871 25.1308H122.861Z" fill="url(#paint8_linear_451_687)"/>
<defs>
<linearGradient id="paint0_linear_451_687" x1="98.2705" y1="167.861" x2="98.3405" y2="167.861" gradientUnits="userSpaceOnUse">
<stop offset="0.21" stop-color="#04007C"/>
<stop offset="0.49" stop-color="#0F00C0"/>
<stop offset="0.71" stop-color="#1700ED"/>
<stop offset="0.82" stop-color="#1B00FF"/>
</linearGradient>
<linearGradient id="paint1_linear_451_687" x1="94.4606" y1="49.3408" x2="173.421" y2="49.3408" gradientUnits="userSpaceOnUse">
<stop offset="0.21" stop-color="#04007C"/>
<stop offset="0.49" stop-color="#0F00C0"/>
<stop offset="0.71" stop-color="#1700ED"/>
<stop offset="0.82" stop-color="#1B00FF"/>
</linearGradient>
<linearGradient id="paint2_linear_451_687" x1="139.441" y1="61.4907" x2="155.531" y2="107.861" gradientUnits="userSpaceOnUse">
<stop offset="0.21" stop-color="#04007C"/>
<stop offset="0.49" stop-color="#0F00C0"/>
<stop offset="0.71" stop-color="#1700ED"/>
<stop offset="0.82" stop-color="#1B00FF"/>
</linearGradient>
<linearGradient id="paint3_linear_451_687" x1="144.13" y1="100.861" x2="117.4" y2="156.621" gradientUnits="userSpaceOnUse">
<stop offset="0.21" stop-color="#04007C"/>
<stop offset="0.49" stop-color="#0F00C0"/>
<stop offset="0.71" stop-color="#1700ED"/>
<stop offset="0.82" stop-color="#1B00FF"/>
</linearGradient>
<linearGradient id="paint4_linear_451_687" x1="115.851" y1="136.831" x2="50.9306" y2="162.481" gradientUnits="userSpaceOnUse">
<stop offset="0.21" stop-color="#04007C"/>
<stop offset="0.49" stop-color="#0F00C0"/>
<stop offset="0.71" stop-color="#1700ED"/>
<stop offset="0.82" stop-color="#1B00FF"/>
</linearGradient>
<linearGradient id="paint5_linear_451_687" x1="71.5905" y1="140.111" x2="2.83052" y2="114.691" gradientUnits="userSpaceOnUse">
<stop offset="0.21" stop-color="#04007C"/>
<stop offset="0.49" stop-color="#0F00C0"/>
<stop offset="0.71" stop-color="#1700ED"/>
<stop offset="0.82" stop-color="#1B00FF"/>
</linearGradient>
<linearGradient id="paint6_linear_451_687" x1="36.3805" y1="111.881" x2="10.1405" y2="47.9808" gradientUnits="userSpaceOnUse">
<stop offset="0.21" stop-color="#04007C"/>
<stop offset="0.49" stop-color="#0F00C0"/>
<stop offset="0.71" stop-color="#1700ED"/>
<stop offset="0.82" stop-color="#1B00FF"/>
</linearGradient>
<linearGradient id="paint7_linear_451_687" x1="35.2205" y1="67.4308" x2="59.0305" y2="7.42078" gradientUnits="userSpaceOnUse">
<stop offset="0.21" stop-color="#04007C"/>
<stop offset="0.49" stop-color="#0F00C0"/>
<stop offset="0.71" stop-color="#1700ED"/>
<stop offset="0.82" stop-color="#1B00FF"/>
</linearGradient>
<linearGradient id="paint8_linear_451_687" x1="58.1905" y1="39.3008" x2="122.151" y2="11.3608" gradientUnits="userSpaceOnUse">
<stop offset="0.21" stop-color="#04007C"/>
<stop offset="0.49" stop-color="#0F00C0"/>
<stop offset="0.71" stop-color="#1700ED"/>
<stop offset="0.82" stop-color="#1B00FF"/>
</linearGradient>
</defs>
</svg>
